<mxfile host="app.diagrams.net" modified="2022-04-27T19:44:17.300Z" agent="5.0 (Windows NT 10.0; Win64; x64) AppleWebKit/537.36 (KHTML, like Gecko) Chrome/100.0.4896.127 Safari/537.36" etag="MZZFyRcBLXuf1EyiPl_A" version="16.6.7" type="github">
  <diagram id="_bG_6sR90QF7nsDfmbCB" name="Page-1">
    <mxGraphModel dx="1422" dy="754" grid="1" gridSize="10" guides="1" tooltips="1" connect="1" arrows="1" fold="1" page="1" pageScale="1" pageWidth="827" pageHeight="1169" math="0" shadow="0">
      <root>
        <mxCell id="0" />
        <mxCell id="1" parent="0" />
        <mxCell id="g1ZYfQzuE92rp7D4GYjT-5" value="blob trigger" style="edgeStyle=orthogonalEdgeStyle;rounded=0;orthogonalLoop=1;jettySize=auto;html=1;" edge="1" parent="1" source="g1ZYfQzuE92rp7D4GYjT-1" target="g1ZYfQzuE92rp7D4GYjT-4">
          <mxGeometry relative="1" as="geometry" />
        </mxCell>
        <mxCell id="g1ZYfQzuE92rp7D4GYjT-1" value="Inbound" style="rounded=1;whiteSpace=wrap;html=1;verticalAlign=top;" vertex="1" parent="1">
          <mxGeometry x="40" y="45" width="120" height="60" as="geometry" />
        </mxCell>
        <mxCell id="g1ZYfQzuE92rp7D4GYjT-3" value="" style="verticalLabelPosition=bottom;html=1;verticalAlign=top;align=center;strokeColor=none;fillColor=#00BEF2;shape=mxgraph.azure.storage_blob;aspect=fixed;" vertex="1" parent="1">
          <mxGeometry x="85" y="70" width="30" height="27" as="geometry" />
        </mxCell>
        <mxCell id="g1ZYfQzuE92rp7D4GYjT-8" value="" style="edgeStyle=orthogonalEdgeStyle;rounded=0;orthogonalLoop=1;jettySize=auto;html=1;" edge="1" parent="1" source="g1ZYfQzuE92rp7D4GYjT-4" target="g1ZYfQzuE92rp7D4GYjT-7">
          <mxGeometry relative="1" as="geometry" />
        </mxCell>
        <mxCell id="g1ZYfQzuE92rp7D4GYjT-4" value="Validator" style="rounded=1;whiteSpace=wrap;html=1;verticalAlign=top;" vertex="1" parent="1">
          <mxGeometry x="270" y="45" width="120" height="60" as="geometry" />
        </mxCell>
        <mxCell id="g1ZYfQzuE92rp7D4GYjT-6" value="" style="aspect=fixed;html=1;points=[];align=center;image;fontSize=12;image=img/lib/azure2/compute/Function_Apps.svg;" vertex="1" parent="1">
          <mxGeometry x="315" y="70" width="30" height="26.47" as="geometry" />
        </mxCell>
        <mxCell id="g1ZYfQzuE92rp7D4GYjT-14" style="edgeStyle=orthogonalEdgeStyle;rounded=0;orthogonalLoop=1;jettySize=auto;html=1;entryX=0;entryY=0.5;entryDx=0;entryDy=0;" edge="1" parent="1" source="g1ZYfQzuE92rp7D4GYjT-7" target="g1ZYfQzuE92rp7D4GYjT-12">
          <mxGeometry relative="1" as="geometry" />
        </mxCell>
        <mxCell id="g1ZYfQzuE92rp7D4GYjT-24" value="Read" style="edgeStyle=orthogonalEdgeStyle;rounded=0;orthogonalLoop=1;jettySize=auto;html=1;entryX=0.5;entryY=1;entryDx=0;entryDy=0;exitX=0.5;exitY=1;exitDx=0;exitDy=0;dashed=1;" edge="1" parent="1" source="g1ZYfQzuE92rp7D4GYjT-7" target="g1ZYfQzuE92rp7D4GYjT-1">
          <mxGeometry relative="1" as="geometry">
            <Array as="points">
              <mxPoint x="580" y="140" />
              <mxPoint x="100" y="140" />
            </Array>
          </mxGeometry>
        </mxCell>
        <mxCell id="g1ZYfQzuE92rp7D4GYjT-7" value="Batch processor" style="rounded=1;whiteSpace=wrap;html=1;verticalAlign=top;" vertex="1" parent="1">
          <mxGeometry x="520" y="45" width="120" height="60" as="geometry" />
        </mxCell>
        <mxCell id="g1ZYfQzuE92rp7D4GYjT-9" value="" style="aspect=fixed;html=1;points=[];align=center;image;fontSize=12;image=img/lib/azure2/compute/Function_Apps.svg;" vertex="1" parent="1">
          <mxGeometry x="565" y="70" width="30" height="26.47" as="geometry" />
        </mxCell>
        <mxCell id="g1ZYfQzuE92rp7D4GYjT-11" value="Process" style="sketch=0;aspect=fixed;html=1;points=[];align=center;image;fontSize=12;image=img/lib/mscae/Service_Bus.svg;" vertex="1" parent="1">
          <mxGeometry x="440" y="40" width="30" height="30" as="geometry" />
        </mxCell>
        <mxCell id="g1ZYfQzuE92rp7D4GYjT-26" value="Read" style="edgeStyle=orthogonalEdgeStyle;rounded=0;orthogonalLoop=1;jettySize=auto;html=1;entryX=0.411;entryY=0.033;entryDx=0;entryDy=0;entryPerimeter=0;dashed=1;" edge="1" parent="1" source="g1ZYfQzuE92rp7D4GYjT-12" target="g1ZYfQzuE92rp7D4GYjT-25">
          <mxGeometry relative="1" as="geometry" />
        </mxCell>
        <mxCell id="g1ZYfQzuE92rp7D4GYjT-12" value="Enrichment" style="rounded=1;whiteSpace=wrap;html=1;verticalAlign=top;" vertex="1" parent="1">
          <mxGeometry x="760" y="45" width="120" height="60" as="geometry" />
        </mxCell>
        <mxCell id="g1ZYfQzuE92rp7D4GYjT-13" value="" style="aspect=fixed;html=1;points=[];align=center;image;fontSize=12;image=img/lib/azure2/compute/Function_Apps.svg;" vertex="1" parent="1">
          <mxGeometry x="805" y="70" width="30" height="26.47" as="geometry" />
        </mxCell>
        <mxCell id="g1ZYfQzuE92rp7D4GYjT-15" value="Enrich" style="sketch=0;aspect=fixed;html=1;points=[];align=center;image;fontSize=12;image=img/lib/mscae/Service_Bus.svg;" vertex="1" parent="1">
          <mxGeometry x="690" y="40" width="30" height="30" as="geometry" />
        </mxCell>
        <mxCell id="g1ZYfQzuE92rp7D4GYjT-17" style="edgeStyle=orthogonalEdgeStyle;rounded=0;orthogonalLoop=1;jettySize=auto;html=1;entryX=0;entryY=0.5;entryDx=0;entryDy=0;" edge="1" parent="1" target="g1ZYfQzuE92rp7D4GYjT-18">
          <mxGeometry relative="1" as="geometry">
            <mxPoint x="880" y="75" as="sourcePoint" />
          </mxGeometry>
        </mxCell>
        <mxCell id="g1ZYfQzuE92rp7D4GYjT-23" style="edgeStyle=orthogonalEdgeStyle;rounded=0;orthogonalLoop=1;jettySize=auto;html=1;entryX=0;entryY=0.5;entryDx=0;entryDy=0;" edge="1" parent="1" source="g1ZYfQzuE92rp7D4GYjT-18" target="g1ZYfQzuE92rp7D4GYjT-21">
          <mxGeometry relative="1" as="geometry" />
        </mxCell>
        <mxCell id="g1ZYfQzuE92rp7D4GYjT-18" value="Publish" style="rounded=1;whiteSpace=wrap;html=1;verticalAlign=top;" vertex="1" parent="1">
          <mxGeometry x="1000" y="45" width="120" height="60" as="geometry" />
        </mxCell>
        <mxCell id="g1ZYfQzuE92rp7D4GYjT-19" value="" style="aspect=fixed;html=1;points=[];align=center;image;fontSize=12;image=img/lib/azure2/compute/Function_Apps.svg;" vertex="1" parent="1">
          <mxGeometry x="1045" y="70" width="30" height="26.47" as="geometry" />
        </mxCell>
        <mxCell id="g1ZYfQzuE92rp7D4GYjT-20" value="Publish" style="sketch=0;aspect=fixed;html=1;points=[];align=center;image;fontSize=12;image=img/lib/mscae/Service_Bus.svg;" vertex="1" parent="1">
          <mxGeometry x="930" y="40" width="30" height="30" as="geometry" />
        </mxCell>
        <mxCell id="g1ZYfQzuE92rp7D4GYjT-21" value="Outbound" style="rounded=1;whiteSpace=wrap;html=1;verticalAlign=top;" vertex="1" parent="1">
          <mxGeometry x="1170" y="45" width="120" height="60" as="geometry" />
        </mxCell>
        <mxCell id="g1ZYfQzuE92rp7D4GYjT-22" value="" style="verticalLabelPosition=bottom;html=1;verticalAlign=top;align=center;strokeColor=none;fillColor=#00BEF2;shape=mxgraph.azure.storage_blob;aspect=fixed;" vertex="1" parent="1">
          <mxGeometry x="1215" y="70" width="30" height="27" as="geometry" />
        </mxCell>
        <mxCell id="g1ZYfQzuE92rp7D4GYjT-25" value="" style="aspect=fixed;html=1;points=[];align=center;image;fontSize=12;image=img/lib/azure2/databases/SQL_Database.svg;" vertex="1" parent="1">
          <mxGeometry x="811.5" y="151" width="22.5" height="30" as="geometry" />
        </mxCell>
      </root>
    </mxGraphModel>
  </diagram>
</mxfile>
